<svg width="800" height="500" viewBox="0 0 800 500" fill="none" xmlns="http://www.w3.org/2000/svg">
<mask id="mask0_1_4" style="mask-type:luminance" maskUnits="userSpaceOnUse" x="0" y="0" width="800" height="500">
<path d="M800 0H0V500H800V0Z" fill="white"/>
</mask>
<g mask="url(#mask0_1_4)">
<path d="M441.409 631.614C439.77 631.614 438.866 631.136 438.306 630.478C433.364 624.664 457.491 596.604 490.885 557.767C547.791 491.584 625.728 400.944 602.635 368.116C594.465 356.502 573.718 353.01 540.98 357.731C504.176 363.041 451.092 378.904 383.202 404.88C277.261 445.417 206.554 465.514 169.448 465.516C154.567 465.517 145.094 462.286 140.914 455.844C124.578 430.674 193.123 362.054 248.201 306.917C282.133 272.948 311.438 243.611 307.268 237.276C305.527 234.63 297.517 236.121 283.46 241.707C266.783 248.336 255.463 248.598 248.852 242.511C232.815 227.745 248.333 176.823 264.762 122.911C284.335 58.6811 306.52 -14.1189 278.159 -36.8979C256.92 -53.9549 210.375 -41.8289 135.866 0.170052L135.498 -0.482948C210.306 -42.6509 257.123 -54.7529 278.629 -37.4809C291.507 -27.1379 295.335 -6.05095 290.332 26.9851C285.937 56.0001 275.537 90.128 265.48 123.131C249.122 176.811 233.67 227.514 249.36 241.96C255.737 247.833 266.8 247.522 283.183 241.01C298.024 235.113 305.875 233.797 307.894 236.864C312.4 243.71 284.303 271.838 248.73 307.448C193.844 362.393 125.536 430.775 141.542 455.436C148.192 465.682 169.58 467.425 205.11 460.621C245.396 452.904 305.224 433.915 382.933 404.18C450.874 378.184 504.013 362.307 540.871 356.99C573.914 352.224 594.901 355.822 603.247 367.685C626.676 400.991 548.519 491.887 491.452 558.257C460.811 593.892 434.348 624.668 438.877 629.993C442.253 633.967 463.087 624.164 502.576 600.025L502.967 600.666C462.072 625.665 447.186 631.613 441.409 631.614Z" fill="white"/>
<path d="M449.985 634.666C448.476 634.666 447.416 634.293 446.782 633.557C441.706 627.659 465.148 599.731 497.594 561.078C552.882 495.213 628.601 405.006 604.928 371.515C596.571 359.692 575.92 355.829 543.546 360.032C507.167 364.757 454.875 379.82 388.124 404.804C242.051 459.476 163.793 474.907 148.874 451.971C132.175 426.298 198.926 358.22 252.561 303.518C285.599 269.823 314.132 240.723 309.863 234.254C308.08 231.552 300.166 232.915 286.342 238.301C270.084 244.634 258.931 244.757 252.245 238.682C235.782 223.721 250.312 172.396 265.697 118.057C284.069 53.163 304.893 -20.388 275.616 -43.46C254.039 -60.466 208.284 -48.922 135.741 -8.16898L135.374 -8.82298C208.21 -49.741 254.235 -61.265 276.081 -44.049C289.367 -33.579 293.726 -12.261 289.409 21.124C285.617 50.447 275.857 84.922 266.419 118.261C251.1 172.37 236.63 223.478 252.75 238.127C259.206 243.994 270.105 243.821 286.07 237.602C300.669 231.915 308.428 230.719 310.489 233.841C315.092 240.815 287.734 268.717 253.097 304.043C199.649 358.553 133.132 426.393 149.503 451.563C156.3 462.014 177.545 464.147 212.646 457.903C252.44 450.825 311.392 432.723 387.862 404.101C454.667 379.097 507.015 364.02 543.45 359.288C576.125 355.047 597.011 359.014 605.541 371.082C629.548 405.044 553.614 495.507 498.169 561.56C468.4 597.024 442.691 627.653 447.353 633.069C450.815 637.092 471.291 627.568 509.941 603.941L510.332 604.582C476.832 625.059 457.64 634.666 449.985 634.666Z" fill="white"/>
<path d="M458.577 637.967C457.013 637.968 455.909 637.58 455.242 636.815C450.028 630.831 472.795 603.023 504.306 564.536C557.996 498.958 631.529 409.145 607.257 374.978C598.708 362.944 578.137 358.711 546.125 362.397C510.156 366.539 458.638 380.808 393 404.81C249.227 457.382 171.932 471.576 156.695 448.202C139.623 422.014 204.611 354.445 256.829 300.152C288.985 266.719 316.755 237.846 312.386 231.243C310.562 228.487 302.743 229.721 289.148 234.907C273.303 240.95 262.317 240.94 255.56 234.878C238.662 219.721 252.205 167.964 266.543 113.168C283.708 47.565 303.164 -26.79 272.947 -50.155C251.038 -67.095 206.067 -56.118 135.466 -16.595L135.1 -17.249C205.993 -56.935 251.233 -67.892 273.406 -50.748C287.111 -40.151 292.011 -18.591 288.387 15.164C285.204 44.814 276.086 79.66 267.269 113.358C252.991 167.926 239.505 219.467 256.062 234.319C262.59 240.175 273.327 240.137 288.882 234.205C303.244 228.726 310.912 227.654 313.013 230.829C317.714 237.932 291.085 265.619 257.371 300.672C205.337 354.772 140.579 422.103 157.325 447.791C164.274 458.45 185.385 460.973 220.068 455.288C259.387 448.845 317.484 431.624 392.744 404.103C458.437 380.082 510.014 365.798 546.041 361.65C578.351 357.93 599.151 362.267 607.87 374.543C632.473 409.176 558.731 499.244 504.888 565.009C475.979 600.319 451.012 630.814 455.81 636.322C459.367 640.398 479.482 631.147 517.315 608.02L517.706 608.661C485.086 628.6 466.27 637.966 458.577 637.967Z" fill="white"/>
<path d="M467.16 641.455C465.538 641.455 464.389 641.053 463.688 640.259C458.331 634.188 480.431 606.485 511.021 568.144C563.134 502.823 634.507 413.363 609.62 378.504C600.874 366.256 580.388 361.653 548.714 364.826C513.144 368.389 462.382 381.871 397.837 404.899C301.991 439.093 236.027 456.077 198.6 456.079C180.763 456.08 169.412 452.224 164.388 444.536C146.935 417.824 210.178 350.742 260.995 296.841C292.284 263.653 319.306 234.991 314.831 228.251C312.965 225.439 305.236 226.544 291.861 231.533C276.426 237.291 265.607 237.151 258.785 231.108C241.448 215.754 254.001 163.537 267.291 108.254C283.244 41.893 301.326 -33.323 270.142 -56.979C247.92 -73.835 203.73 -63.41 135.044 -25.102L134.679 -25.757C203.651 -64.225 248.111 -74.635 270.595 -57.577C284.73 -46.854 290.18 -25.041 287.255 9.10802C284.686 39.105 276.214 74.347 268.021 108.429C254.785 163.487 242.283 215.491 259.283 230.547C265.879 236.389 276.451 236.481 291.6 230.83C305.732 225.557 313.312 224.605 315.457 227.836C320.26 235.073 294.348 262.558 261.541 297.356C210.905 351.066 147.886 417.91 165.017 444.126C172.119 454.995 193.102 457.908 227.386 452.781C266.244 446.97 323.509 430.623 397.587 404.193C462.189 381.145 513.011 367.649 548.641 364.081C580.602 360.877 601.32 365.586 610.233 378.069C635.45 413.388 563.873 503.104 511.61 568.612C483.547 603.786 459.312 634.164 464.254 639.763C467.897 643.892 487.672 634.908 524.696 612.275L525.087 612.916C493.329 632.326 474.885 641.455 467.16 641.455Z" fill="white"/>
<path d="M475.737 645.127C474.057 645.127 472.863 644.71 472.127 643.887C466.622 637.73 488.064 610.122 517.741 571.912C568.3 506.817 637.542 417.665 612.018 382.1C603.072 369.635 582.65 364.663 551.313 367.326C516.128 370.313 466.104 383.015 402.629 405.08C263.301 453.511 187.844 465.254 171.945 440.978C154.099 413.732 215.627 347.105 265.065 293.569C295.498 260.614 321.781 232.152 317.201 225.271C315.292 222.402 307.652 223.379 294.494 228.174C279.461 233.651 268.809 233.387 261.927 227.367C244.145 211.813 255.707 159.106 267.947 103.303C282.68 36.136 299.38 -39.994 267.205 -63.939C244.685 -80.7 201.271 -70.807 134.479 -33.696L134.115 -34.351C201.19 -71.621 244.87 -81.497 267.652 -64.542C300.215 -40.308 283.461 36.074 268.678 103.463C256.487 159.043 244.971 211.54 262.419 226.802C269.078 232.626 279.486 232.844 294.236 227.468C308.143 222.401 315.637 221.57 317.824 224.855C322.731 232.228 297.526 259.522 265.615 294.078C216.354 347.423 155.047 413.811 172.572 440.567C179.832 451.653 200.701 454.956 234.592 450.381C273.005 445.199 329.457 429.719 402.381 404.37C465.914 382.286 516 369.57 551.248 366.578C582.866 363.895 603.515 368.969 612.625 381.662C638.475 417.683 569.035 507.09 518.331 572.372C489.985 608.869 467.596 637.695 472.684 643.387C476.428 647.572 495.857 638.844 532.085 616.696L532.476 617.337C501.57 636.231 483.491 645.127 475.737 645.127Z" fill="white"/>
<path d="M484.311 648.989C482.573 648.989 481.332 648.557 480.558 647.704C474.899 641.46 495.693 613.933 524.472 575.832C573.493 510.933 640.631 422.05 614.451 385.762C605.302 373.081 584.936 367.745 553.926 369.895C519.114 372.311 469.812 384.24 407.387 405.349C270.203 451.738 195.622 462.263 179.381 437.527C161.133 409.734 220.966 343.535 269.043 290.342C298.633 257.605 324.188 229.33 319.498 222.305C317.544 219.38 309.99 220.229 297.044 224.829C282.408 230.031 271.923 229.646 264.987 223.653C246.753 207.898 257.32 154.668 268.507 98.313C282.01 30.29 297.315 -46.809 264.126 -71.04C241.328 -87.686 198.685 -78.311 133.764 -42.382L133.401 -43.038C198.605 -79.123 241.509 -88.481 264.569 -71.645C298.144 -47.131 282.79 30.217 269.243 98.46C258.1 154.595 247.575 207.616 265.478 223.086C272.192 228.888 282.436 229.226 296.793 224.123C310.291 219.326 317.923 218.595 320.122 221.89C325.137 229.401 300.629 256.516 269.6 290.845C221.697 343.846 162.079 409.806 180.009 437.116C187.43 448.419 208.188 452.113 241.706 448.092C279.688 443.536 335.35 428.917 407.147 404.639C469.632 383.509 518.999 371.568 553.875 369.148C585.162 366.972 605.749 372.418 615.06 385.325C641.565 422.061 574.234 511.2 525.071 576.286C497.585 612.676 475.874 641.419 481.115 647.202C484.954 651.441 504.05 642.967 539.497 621.298L539.888 621.939C509.81 640.322 492.093 648.989 484.311 648.989Z" fill="white"/>
<path d="M492.885 653.039C491.086 653.039 489.797 652.591 488.986 651.708C483.169 645.378 503.321 617.917 531.213 579.909C578.718 515.174 643.778 426.515 616.921 389.487C607.565 376.587 587.249 370.879 556.552 372.527C522.102 374.374 473.503 385.534 412.107 405.697C277.014 450.063 203.281 459.376 186.69 434.172C168.029 405.819 226.192 340.021 272.927 287.15C301.684 254.617 326.52 226.52 321.718 219.349C319.719 216.365 312.246 217.087 299.507 221.498C285.265 226.43 274.947 225.928 267.964 219.966C249.276 204.008 258.844 150.228 268.974 93.291C281.238 24.359 295.139 -53.769 260.911 -78.287C237.854 -94.8 195.98 -85.933 132.9 -51.169L132.538 -51.826C195.897 -86.744 238.032 -95.596 261.348 -78.896C295.96 -54.103 282.015 24.273 269.713 93.423C259.622 150.143 250.09 203.716 268.451 219.396C275.213 225.17 285.291 225.626 299.261 220.789C312.545 216.189 320.095 215.581 322.34 218.932C327.465 226.583 303.645 253.53 273.488 287.646C226.922 340.325 168.97 405.886 187.316 433.758C194.901 445.283 215.561 449.37 248.716 445.898C286.282 441.967 341.176 428.202 411.872 404.984C473.331 384.8 521.995 373.629 556.512 371.778C587.477 370.119 608.013 375.927 617.529 389.047C644.708 426.519 579.46 515.432 531.818 580.354C505.179 616.653 484.139 645.325 489.539 651.201C493.478 655.483 512.247 647.267 546.92 626.071L547.311 626.712C518.05 644.596 500.688 653.038 492.885 653.039Z" fill="white"/>
<path d="M501.46 657.278C499.602 657.278 498.265 656.814 497.413 655.901C491.433 649.486 510.95 622.079 537.964 584.147C583.971 519.545 646.979 431.07 619.424 393.286C609.857 380.165 589.594 374.089 559.19 375.236C525.089 376.518 477.179 386.917 416.792 406.142C347.116 428.324 292.916 441.25 255.696 444.564C222.595 447.512 201.794 442.921 193.876 430.922C174.79 401.998 231.309 336.569 276.722 283.996C304.658 251.655 328.785 223.725 323.868 216.405C321.823 213.361 314.43 213.958 301.896 218.179C288.038 222.846 277.886 222.232 270.864 216.303C251.716 200.138 260.28 145.776 269.347 88.223C280.357 18.336 292.837 -60.877 257.55 -85.676C234.252 -102.049 193.147 -93.668 131.885 -60.053L131.524 -60.71C193.063 -94.477 234.427 -102.843 257.982 -86.29C293.651 -61.222 281.133 18.236 270.089 88.34C261.055 145.678 252.523 199.837 271.349 215.73C278.154 221.475 288.069 222.043 301.658 217.468C314.736 213.065 322.204 212.58 324.492 215.987C329.728 223.781 306.588 250.57 277.29 284.486C232.042 336.868 175.729 402.058 194.502 430.508C202.256 442.26 222.821 446.739 255.63 443.816C292.795 440.507 346.941 427.591 416.565 405.426C477.016 386.18 524.994 375.77 559.162 374.485C589.847 373.336 610.307 379.509 620.031 392.843C647.904 431.065 584.715 519.794 538.576 584.581C512.776 620.808 492.399 649.421 497.962 655.389C502.005 659.721 520.451 651.748 554.364 631.017L554.755 631.658C526.293 649.057 509.282 657.277 501.46 657.278Z" fill="white"/>
<path d="M510.042 661.714C508.125 661.714 506.736 661.235 505.844 660.291C499.694 653.789 518.585 626.422 544.733 588.545C589.258 524.046 650.238 435.71 621.965 397.151C612.181 383.808 591.947 377.358 561.842 378.011C528.078 378.732 480.84 388.375 421.44 406.672C352.812 427.811 299.339 439.894 262.506 442.587C229.749 444.979 209.033 439.999 200.946 427.776C181.425 398.268 236.317 333.184 280.423 280.888C307.551 248.723 330.979 220.944 325.944 213.472C323.853 210.368 316.536 210.84 304.197 214.872C290.718 219.279 280.737 218.559 273.682 212.667C254.074 196.295 261.629 141.324 269.628 83.125C279.373 12.225 290.418 -68.135 254.049 -93.216C230.533 -109.431 190.193 -101.524 130.722 -69.04L130.363 -69.698C190.106 -102.331 230.701 -110.226 254.475 -93.833C291.224 -68.49 280.145 12.113 270.371 83.227C262.401 141.214 254.873 195.986 274.163 212.092C281.003 217.803 290.75 218.48 303.964 214.159C316.839 209.95 324.232 209.589 326.566 213.052C331.919 220.993 309.447 247.638 280.997 281.37C237.052 333.474 182.361 398.321 201.573 427.36C209.499 439.339 229.98 444.211 262.452 441.838C299.229 439.15 352.646 427.076 421.22 405.954C480.687 387.637 527.993 377.982 561.826 377.26C592.207 376.611 612.634 383.155 622.57 396.706C651.16 435.695 590.005 524.284 545.351 588.969C520.38 625.142 500.657 653.714 506.39 659.774C510.527 664.155 528.666 656.422 561.829 636.15L562.22 636.791C534.544 653.709 517.88 661.713 510.042 661.714Z" fill="white"/>
<path d="M518.535 666.291C516.597 666.291 515.187 665.815 514.283 664.874C507.958 658.287 526.23 630.947 551.52 593.107C594.583 528.677 653.557 440.437 624.541 401.084C614.643 387.658 594.759 380.853 565.437 380.853C565.127 380.853 564.819 380.854 564.507 380.855C531.069 381.018 484.487 389.911 426.055 407.287C358.449 427.391 305.682 438.638 269.221 440.712C236.792 442.552 216.158 437.179 207.898 424.729C187.929 394.626 241.219 329.856 284.038 277.814C310.368 245.812 333.107 218.174 327.95 210.548C325.81 207.382 318.566 207.73 306.423 211.577C293.317 215.731 283.505 214.905 276.423 209.054C256.349 192.47 262.889 136.856 269.814 77.976C278.277 6.01501 287.869 -75.548 250.399 -100.906C226.69 -116.952 187.112 -109.5 129.407 -78.128L129.049 -78.787C187.025 -110.306 226.856 -117.743 250.819 -101.528C288.667 -75.915 279.047 5.88902 270.559 78.063C263.66 136.734 257.142 192.151 276.901 208.475C283.77 214.15 293.353 214.931 306.196 210.861C318.871 206.844 326.19 206.605 328.57 210.127C334.041 218.217 312.23 244.727 284.616 278.29C241.954 330.142 188.861 394.673 208.522 424.313C216.624 436.526 237.031 441.794 269.177 439.962C305.58 437.891 358.289 426.655 425.84 406.567C484.341 389.171 530.993 380.267 564.502 380.104C594.597 380.002 614.99 386.867 625.143 400.637C654.472 440.414 595.328 528.907 552.143 593.523C527.992 629.659 508.916 658.202 514.823 664.353C519.067 668.772 536.891 661.287 569.319 641.462L569.71 642.103C543.034 658.412 526.422 666.29 518.535 666.291Z" fill="white"/>
<path d="M527.146 671.118C525.149 671.118 523.687 670.628 522.74 669.656C516.233 662.985 533.893 635.657 558.336 597.833C599.948 533.441 656.937 445.254 627.155 405.086C616.928 391.294 596.754 384.122 567.19 383.772C534.063 383.384 488.127 391.526 430.643 407.991C364.034 427.069 311.955 437.481 275.853 438.938C243.735 440.24 223.178 434.46 214.743 421.778C194.315 391.064 246.023 326.582 287.571 274.769C313.111 242.919 335.169 215.413 329.888 207.629C327.699 204.402 320.528 204.625 308.574 208.288C295.835 212.194 286.189 211.268 279.089 205.461C258.549 188.662 264.068 132.375 269.91 72.783C277.075 -0.293968 285.195 -83.122 246.606 -108.754C222.73 -124.613 183.915 -117.606 127.946 -87.328L127.589 -87.988C183.823 -118.41 222.889 -125.408 247.021 -109.379C285.985 -83.498 277.841 -0.431961 270.656 72.855C264.834 132.241 259.334 188.334 279.563 204.879C286.454 210.515 295.871 211.396 308.353 207.57C320.832 203.745 328.079 203.627 330.508 207.206C336.1 215.448 314.942 241.833 288.156 275.237C246.761 326.859 195.243 391.103 215.367 421.361C223.648 433.811 243.99 439.464 275.823 438.187C311.865 436.732 363.885 426.33 430.436 407.268C487.99 390.785 533.965 382.63 567.199 383.02C597.009 383.374 617.384 390.647 627.758 404.638C657.85 445.223 600.698 533.663 558.966 598.239C535.624 634.359 517.188 662.888 523.278 669.132C527.628 673.595 545.151 666.341 576.851 646.962L577.242 647.603C551.31 663.454 535.043 671.118 527.146 671.118Z" fill="white"/>
<path d="M535.765 676.142C533.707 676.142 532.195 675.637 531.202 674.636C524.509 667.88 541.562 640.552 565.167 602.728C605.347 538.341 660.375 450.161 629.805 409.16C619.352 395.14 599.194 387.604 569.889 386.761C537.076 385.809 491.757 393.226 435.205 408.784C369.568 426.845 318.156 436.429 282.397 437.269C250.594 438.026 230.09 431.847 221.474 418.929C200.574 387.591 250.72 323.367 291.013 271.763C315.775 240.05 337.16 212.661 331.752 204.716C329.513 201.429 322.413 201.526 310.641 205.007C298.26 208.669 288.785 207.649 281.673 201.887C260.668 184.869 265.157 127.879 269.91 67.543C275.759 -6.70502 282.388 -90.859 242.663 -116.763C218.639 -132.427 180.588 -125.846 126.33 -96.645L125.975 -97.305C180.498 -126.648 218.801 -133.218 243.073 -117.391C283.171 -91.244 276.523 -6.85401 270.658 67.602C265.921 127.736 261.447 184.535 282.146 201.305C289.052 206.9 298.303 207.875 310.429 204.289C322.717 200.654 329.895 200.657 332.372 204.295C338.089 212.692 317.575 238.964 291.604 272.226C251.46 323.64 201.499 387.626 222.099 418.514C230.563 431.204 250.855 437.261 282.38 436.521C318.077 435.68 369.428 426.105 435.006 408.062C491.63 392.483 537.026 385.056 569.91 386.011C599.455 386.863 619.809 394.499 630.406 408.712C661.283 450.123 606.097 538.556 565.802 603.125C543.262 639.245 525.458 667.774 531.735 674.108C536.185 678.605 553.414 671.586 584.396 652.647L584.787 653.288C559.593 668.688 543.668 676.141 535.765 676.142Z" fill="white"/>
<path d="M544.409 681.367C542.292 681.367 540.726 680.848 539.688 679.816C532.801 672.977 549.255 645.632 572.029 607.786C610.79 543.372 663.874 455.155 632.49 413.301C621.807 399.054 601.659 391.153 572.604 389.819C540.083 388.332 495.379 395.004 439.74 409.667C375.052 426.716 324.289 435.476 288.863 435.702C257.32 435.877 236.904 429.335 228.105 416.178C206.719 384.201 255.322 320.209 294.374 268.79C318.368 237.199 339.089 209.916 333.549 201.808C331.259 198.458 324.223 198.431 312.633 201.732C300.606 205.158 291.299 204.045 284.182 198.331C262.709 181.089 266.16 123.365 269.814 62.251C274.326 -13.221 279.44 -98.762 238.565 -124.933C214.428 -140.387 177.136 -134.22 124.562 -106.076L124.208 -106.737C177.044 -135.021 214.582 -141.178 238.97 -125.565C280.215 -99.156 275.087 -13.382 270.563 62.295C266.921 123.21 263.481 180.747 284.651 197.746C291.564 203.297 300.65 204.366 312.427 201.011C324.528 197.564 331.64 197.686 334.168 201.386C340.012 209.941 320.135 236.112 294.971 269.244C256.062 320.473 207.639 384.229 228.727 415.762C237.377 428.697 257.601 435.172 288.857 434.953C324.221 434.726 374.921 425.976 439.547 408.943C495.259 394.259 540.035 387.573 572.637 389.071C601.926 390.416 622.265 398.417 633.088 412.851C664.775 455.11 611.54 543.577 572.671 608.173C550.923 644.314 533.745 672.861 540.215 679.284C544.78 683.819 561.715 677.022 591.988 658.516L592.379 659.157C567.902 674.121 552.313 681.366 544.409 681.367Z" fill="white"/>
<path d="M553.079 686.796C550.902 686.796 549.283 686.261 548.199 685.201C541.111 678.279 556.972 650.903 578.924 613.014C616.278 548.541 667.437 460.243 635.215 417.512C624.3 403.036 604.155 394.773 575.34 392.951C543.098 390.909 498.997 396.863 444.254 410.638C380.49 426.683 330.381 434.62 295.247 434.236C264.011 433.892 243.616 426.923 234.629 413.522C212.745 380.891 259.824 317.101 297.652 265.846C320.886 234.364 340.952 207.176 335.278 198.9C332.904 195.437 326.125 195.292 314.55 198.457C302.867 201.652 293.729 200.452 286.614 194.787C264.676 177.317 267.081 118.827 269.627 56.903C272.782 -19.848 276.359 -106.838 234.321 -133.273C210.092 -148.508 173.563 -142.737 122.644 -115.631L122.291 -116.293C173.47 -143.537 210.246 -149.298 234.719 -133.908C277.125 -107.242 273.539 -20.021 270.375 56.933C267.837 118.662 265.44 176.968 287.08 194.2C293.995 199.706 302.915 200.862 314.35 197.734C326.269 194.474 333.317 194.717 335.894 198.477C341.87 207.193 322.622 233.273 298.253 266.292C260.564 317.358 213.659 380.912 235.249 413.105C244.091 426.289 264.279 433.146 295.253 433.487C330.332 433.884 380.367 425.941 444.068 409.913C498.887 396.119 543.063 390.165 575.385 392.204C604.428 394.041 624.758 402.404 635.812 417.061C668.333 460.189 617.03 548.737 579.571 613.391C558.608 649.573 542.05 678.151 548.72 684.665C553.391 689.227 570.04 682.66 599.616 664.58L600.007 665.221C576.235 679.754 560.98 686.796 553.079 686.796Z" fill="white"/>
<path d="M561.776 692.431C559.54 692.432 557.869 691.883 556.735 690.794C549.441 683.79 564.712 656.369 585.85 618.417C621.809 553.851 671.057 465.426 637.973 421.795C626.822 407.089 606.674 398.463 578.09 396.155C546.128 393.576 502.608 398.801 448.74 411.697C385.878 426.744 336.347 433.868 301.554 432.869C270.587 431.98 250.232 424.609 241.053 410.962C218.658 377.662 264.231 314.048 300.849 262.933C323.333 231.548 342.751 204.443 336.94 195.997C334.513 192.469 327.792 192.206 316.394 195.188C305.046 198.158 296.077 196.874 288.973 191.26C266.571 173.558 267.92 114.271 269.347 51.503C271.123 -26.581 273.137 -115.084 229.925 -141.779C205.638 -156.784 169.867 -151.397 120.571 -125.307L120.22 -125.97C169.771 -152.194 205.785 -157.574 230.319 -142.417C273.898 -115.497 271.88 -26.766 270.1 51.5201C268.676 114.096 267.332 173.201 289.44 190.671C296.347 196.127 305.102 197.369 316.206 194.462C327.947 191.388 334.933 191.751 337.56 195.571C343.669 204.452 325.043 230.452 301.461 263.369C264.978 314.296 219.573 377.676 241.677 410.544C250.713 423.979 270.866 431.238 301.577 432.119C336.32 433.119 385.771 425.999 448.568 410.968C502.51 398.056 546.112 392.819 578.152 395.407C606.958 397.733 627.286 406.459 638.572 421.342C671.953 465.363 622.566 554.035 586.507 618.782C566.322 655.024 550.379 683.65 557.256 690.254C562.038 694.85 578.404 688.498 607.294 670.837L607.685 671.478C584.599 685.588 569.671 692.431 561.776 692.431Z" fill="white"/>
<path d="M570.503 698.277C568.208 698.277 566.485 697.714 565.302 696.598C557.795 689.512 572.483 662.033 592.812 623.998C627.391 559.305 674.748 470.705 640.773 426.15C629.383 411.213 609.228 402.224 580.867 399.434C549.168 396.314 506.22 400.829 453.215 412.848C391.232 426.905 342.306 433.22 307.794 431.607C277.085 430.175 256.761 422.402 247.387 408.503C224.465 374.518 268.549 311.049 303.97 260.05C325.712 228.748 344.489 201.714 338.536 193.092C336.056 189.499 329.392 189.115 318.162 191.92C307.144 194.672 298.344 193.307 291.256 187.745C268.394 169.805 268.677 109.691 268.976 46.048C269.35 -33.428 269.774 -123.509 225.379 -150.462C201.058 -165.228 166.049 -160.209 118.349 -135.12L117.999 -135.784C165.951 -161.005 201.202 -166.016 225.768 -151.103C270.525 -123.93 270.101 -33.624 269.726 46.051C269.427 109.506 269.145 169.441 291.719 187.154C298.614 192.563 307.203 193.883 317.981 191.191C329.548 188.301 336.474 188.782 339.154 192.664C345.401 201.712 327.39 227.645 304.587 260.475C269.296 311.286 225.375 374.521 248.01 408.082C257.244 421.773 277.371 429.436 307.83 430.856C342.28 432.464 391.134 426.157 453.05 412.116C506.135 400.076 549.164 395.554 580.942 398.686C609.519 401.497 629.851 410.584 641.372 425.693C675.639 470.631 628.15 559.476 593.476 624.349C574.062 660.669 558.729 689.358 565.819 696.049C570.715 700.67 586.802 694.53 615.007 677.288L615.398 677.929C592.987 691.63 578.385 698.276 570.503 698.277Z" fill="white"/>
<path d="M579.267 704.332C576.914 704.332 575.138 703.756 573.905 702.612C566.177 695.447 580.287 667.891 599.813 629.754C633.019 564.9 678.495 476.082 643.605 430.578C631.974 415.409 611.804 406.058 583.655 402.787C552.213 399.134 509.82 402.935 457.657 414.092C396.533 427.164 348.186 432.666 313.952 430.447C283.49 428.471 263.19 420.294 253.617 406.14C230.156 371.452 272.768 308.1 307.008 257.196C328.017 225.961 346.161 198.986 340.065 190.187C337.53 186.527 330.919 186.026 319.859 188.652C309.164 191.193 300.529 189.75 293.464 184.241C270.144 166.057 269.349 105.086 268.508 40.535C267.453 -40.389 266.258 -132.111 220.673 -159.317C196.347 -173.835 162.096 -169.172 115.961 -145.06L115.613 -145.725C161.998 -169.967 196.489 -174.624 221.057 -159.961C267.002 -132.54 268.2 -40.595 269.257 40.525C270.096 104.891 270.888 165.688 293.925 183.65C300.799 189.011 309.226 190.408 319.685 187.923C331.081 185.216 337.948 185.817 340.681 189.76C347.069 198.98 329.665 224.855 307.63 257.614C273.516 308.332 231.06 371.452 254.238 405.719C263.674 419.67 283.781 427.739 314 429.698C348.16 431.911 396.442 426.416 457.5 413.356C509.742 402.183 552.217 398.376 583.741 402.041C612.099 405.337 632.44 414.784 644.2 430.121C679.378 476.001 633.777 565.063 600.48 630.095C581.833 666.516 567.103 695.283 574.414 702.062C579.42 706.701 595.235 700.776 622.769 683.943L623.16 684.584C601.415 697.877 587.133 704.331 579.267 704.332Z" fill="white"/>
<path d="M588.061 710.598C585.654 710.598 583.823 710.008 582.539 708.838C574.586 701.596 588.12 673.95 606.852 635.688C638.697 570.641 682.31 481.555 646.479 435.077C634.606 419.676 614.416 409.965 586.473 406.215C555.278 402.028 513.43 405.127 462.095 415.426C401.805 427.521 354.013 432.218 320.048 429.387C289.82 426.868 269.537 418.283 259.761 403.87C235.745 368.463 276.9 305.201 309.968 254.368C330.251 223.189 347.768 196.262 341.524 187.281C338.933 183.555 332.375 182.934 321.477 185.385C311.24 187.688 302.532 186.127 295.593 180.747C271.82 162.312 269.938 100.452 267.946 34.9581C265.439 -47.4699 262.597 -140.896 215.82 -168.351C191.52 -182.614 158.028 -178.291 113.428 -155.135L113.082 -155.801C157.93 -179.085 191.66 -183.401 216.199 -168.998C263.333 -141.333 266.182 -47.6869 268.695 34.9361C270.682 100.247 272.558 161.937 296.052 180.154C302.9 185.465 311.162 186.936 321.312 184.653C332.543 182.127 339.354 182.847 342.14 186.853C348.673 196.248 331.87 222.077 310.597 254.777C277.65 305.424 236.646 368.454 260.382 403.449C270.025 417.665 290.12 426.139 320.11 428.639C354.008 431.464 401.727 426.77 461.947 414.69C513.363 404.375 555.294 401.274 586.572 405.471C614.718 409.247 635.074 419.054 647.072 434.618C683.188 481.466 639.456 570.794 607.524 636.017C589.635 672.557 575.505 701.419 583.043 708.284C588.154 712.942 603.706 707.221 630.576 690.794L630.967 691.435C609.871 704.331 595.906 710.598 588.061 710.598Z" fill="white"/>
<path d="M596.903 717.084C594.441 717.084 592.557 716.481 591.221 715.286C583.034 707.967 595.997 680.216 613.938 641.807C644.429 576.53 686.189 487.129 649.389 439.649C637.27 424.013 617.057 413.943 589.31 409.717C558.355 405.001 517.038 407.403 466.514 416.852C407.036 427.973 359.785 431.869 326.076 428.429C296.072 425.366 275.798 416.373 265.815 401.698C241.229 365.553 280.943 302.35 312.855 251.565C332.421 220.428 349.318 193.537 342.922 184.371C340.275 180.577 333.767 179.84 323.028 182.114C313.092 184.22 304.552 182.586 297.649 177.259C273.426 158.566 270.444 95.784 267.288 29.316C263.3 -54.674 258.779 -149.87 210.808 -177.571C186.564 -191.571 153.829 -187.576 110.734 -165.357L110.39 -166.024C153.73 -188.368 186.701 -192.358 211.183 -178.221C259.509 -150.316 264.04 -54.903 268.037 29.279C271.185 95.569 274.159 158.183 298.107 176.664C304.923 181.924 313.023 183.467 322.873 181.38C333.938 179.034 340.698 179.872 343.538 183.941C350.219 193.514 334.011 219.308 313.491 251.963C281.696 302.563 242.125 365.535 266.436 401.274C276.289 415.758 296.38 424.643 326.153 427.681C359.794 431.115 406.97 427.222 466.376 416.113C516.986 406.649 558.385 404.248 589.424 408.973C617.367 413.229 637.741 423.394 649.983 439.187C687.063 487.03 645.192 576.67 614.619 642.123C597.485 678.805 583.951 707.778 591.723 714.726C596.95 719.398 612.231 713.876 638.449 697.85L638.84 698.491C618.375 711.001 604.723 717.083 596.903 717.084Z" fill="white"/>
<path d="M605.787 723.787C603.271 723.788 601.337 723.173 599.948 721.954C591.52 714.558 603.916 686.686 621.07 648.109C650.215 582.568 690.133 492.806 652.336 444.294C639.971 428.423 619.729 417.992 592.171 413.293C561.442 408.05 520.648 409.759 470.917 418.365C412.235 428.522 365.509 431.621 332.042 427.57C302.252 423.966 281.979 414.562 271.786 399.62C246.614 362.72 284.902 299.547 315.667 248.787C334.522 217.677 350.806 190.81 344.254 181.456C341.549 177.594 335.09 176.738 324.506 178.84C314.863 180.757 306.495 179.052 299.63 173.777C274.965 154.819 270.872 91.0881 266.539 23.6141C261.041 -61.9979 254.81 -159.032 205.643 -186.976C181.48 -200.707 149.5 -197.027 107.875 -175.722L107.533 -176.39C149.4 -197.818 181.613 -201.495 206.013 -187.628C255.533 -159.485 261.778 -62.2359 267.288 23.5661C271.61 90.8651 275.692 154.432 300.088 173.182C306.866 178.392 314.805 180.003 324.359 178.104C335.267 175.937 341.974 176.893 344.867 181.025C351.7 190.78 336.081 216.55 316.307 249.175C285.654 299.751 247.504 362.695 272.404 399.196C282.469 413.952 302.565 423.248 332.131 426.825C365.526 430.865 412.177 427.77 470.787 417.626C520.603 409.004 561.484 407.299 592.295 412.552C620.043 417.284 640.442 427.809 652.926 443.832C691 492.7 650.978 582.699 621.756 648.414C605.372 685.258 592.431 714.359 600.443 721.391C605.783 726.074 620.801 720.747 646.37 705.118L646.761 705.759C626.92 717.886 613.576 723.786 605.787 723.787Z" fill="white"/>
<path d="M614.724 730.711C612.159 730.711 610.171 730.085 608.73 728.843C600.054 721.374 611.884 693.363 628.256 654.594C656.061 588.755 694.141 498.586 655.322 449.014C642.709 432.907 622.432 422.117 595.056 416.947C564.55 411.183 524.262 412.205 475.31 419.977C417.398 429.174 371.182 431.473 337.945 426.816C308.357 422.669 288.077 412.852 277.67 397.638C251.898 359.963 288.772 296.793 318.401 246.036C336.553 214.941 352.229 188.085 345.519 178.538C342.756 174.607 336.343 173.634 325.91 175.563C316.553 177.293 308.353 175.523 301.536 170.301C276.435 151.072 271.219 86.3581 265.696 17.8451C258.66 -69.4479 250.685 -168.387 200.326 -196.568C176.274 -210.026 145.049 -206.646 104.865 -186.233L104.525 -186.902C144.949 -207.437 176.405 -210.812 200.692 -197.222C251.4 -168.846 259.392 -69.6939 266.443 17.7851C271.952 86.1271 277.155 150.679 301.991 169.706C308.727 174.865 316.505 176.54 325.772 174.826C336.522 172.837 343.182 173.911 346.131 178.106C353.119 188.047 338.083 213.805 319.048 246.414C289.526 296.988 252.784 359.931 278.288 397.214C288.571 412.247 308.677 421.956 338.048 426.072C371.212 430.719 417.352 428.421 475.192 419.236C524.231 411.45 564.605 410.431 595.195 416.209C622.755 421.415 643.182 432.296 655.912 448.551C695.003 498.471 656.823 588.875 628.946 654.886C613.308 691.914 600.956 721.162 609.218 728.275C614.66 732.96 629.425 727.833 654.359 712.59L654.75 713.231C635.517 724.987 622.478 730.711 614.724 730.711Z" fill="white"/>
<path d="M623.706 737.865C621.091 737.865 619.054 737.228 617.558 735.965C608.629 728.424 619.896 700.258 635.49 661.275C661.961 595.101 698.215 504.472 658.345 453.807C645.483 437.462 625.169 426.315 597.967 420.675C567.677 414.396 527.883 414.734 479.694 421.679C422.534 429.919 376.81 431.426 343.791 426.159C314.394 421.469 294.102 411.238 283.477 395.749C257.089 357.278 292.563 294.083 321.067 243.305C338.521 212.211 353.595 185.357 346.722 175.613C343.901 171.613 337.533 170.524 327.246 172.282C318.168 173.835 310.132 171.999 303.365 166.828C277.831 147.314 271.478 81.587 264.752 12C256.147 -77.031 246.393 -177.941 194.849 -206.355C170.938 -219.537 140.464 -216.444 101.688 -196.902L101.35 -197.572C140.365 -217.234 171.067 -220.321 195.211 -207.011C247.102 -178.406 256.876 -77.2859 265.499 11.929C272.209 81.349 278.546 146.918 303.819 166.232C310.507 171.343 318.126 173.079 327.119 171.543C337.715 169.732 344.329 170.921 347.333 175.181C354.479 185.311 340.022 211.066 321.719 243.672C293.317 294.27 257.969 357.239 284.094 395.324C294.598 410.638 314.722 420.763 343.908 425.419C376.85 430.673 422.5 429.165 479.586 420.937C527.863 413.977 567.744 413.642 598.119 419.941C625.499 425.618 645.96 436.856 658.934 453.343C699.071 504.348 662.725 595.209 636.186 661.554C621.292 698.789 609.526 728.2 618.043 735.392C623.593 740.08 638.106 735.137 662.405 720.283L662.796 720.924C644.158 732.315 631.422 737.865 623.706 737.865Z" fill="white"/>
<path d="M632.743 745.243C630.082 745.243 627.995 744.595 626.446 743.313C617.256 735.702 627.962 707.367 642.78 668.15C667.923 601.605 702.356 510.469 661.41 458.678C648.298 442.094 627.942 430.589 600.908 424.482C570.825 417.688 531.517 417.347 484.069 423.476C427.639 430.766 382.389 431.483 349.58 425.607C320.364 420.375 300.051 409.726 289.204 393.957C262.183 354.672 296.267 291.421 323.655 240.598C340.419 209.489 354.897 182.622 347.857 172.675C344.977 168.606 338.647 167.4 328.508 168.987C319.698 170.366 311.827 168.47 305.115 163.35C279.161 143.547 271.659 76.777 263.718 6.08702C253.513 -84.742 241.948 -187.689 189.226 -216.335C165.482 -229.238 135.757 -226.42 98.354 -207.727L98.019 -208.398C135.658 -227.21 165.609 -230.02 189.584 -216.994C242.649 -188.161 254.238 -85.007 264.463 6.00401C272.386 76.53 279.87 143.145 305.57 162.753C312.205 167.816 319.671 169.613 328.392 168.246C338.842 166.608 345.408 167.916 348.47 172.242C355.779 182.568 341.894 208.333 324.316 240.953C297.026 291.597 263.062 354.624 289.823 393.532C300.551 409.13 320.701 419.674 349.713 424.869C382.446 430.732 427.618 430.014 483.975 422.732C531.507 416.593 570.906 416.935 601.075 423.751C628.281 429.897 648.779 441.492 662 458.214C703.21 510.337 668.69 601.703 643.483 668.415C629.329 705.877 618.149 735.467 626.926 742.735C632.581 747.42 646.843 742.659 670.517 728.185L670.908 728.826C652.852 739.862 640.414 745.242 632.743 745.243Z" fill="white"/>
<path d="M641.845 752.852C639.14 752.852 637.004 752.195 635.402 750.894C625.944 743.215 636.09 714.692 650.133 675.214C673.948 608.265 706.566 516.574 664.514 463.626C651.153 446.802 630.751 434.939 603.877 428.367C573.992 421.058 535.154 420.05 488.438 425.368C432.717 431.714 387.928 431.641 355.315 425.157C326.27 419.382 305.929 408.312 294.858 392.259C267.188 352.137 299.896 288.801 326.177 237.909C342.256 206.772 356.143 179.882 348.932 169.73C345.992 165.59 339.702 164.268 329.703 165.686C321.156 166.901 313.444 164.944 306.79 159.872C280.419 139.768 271.755 71.923 262.582 0.0940247C250.745 -92.592 237.329 -197.644 183.44 -226.517C159.891 -239.135 130.912 -236.584 94.85 -218.717L94.517 -219.389C130.81 -237.372 160.013 -239.921 183.794 -227.178C238.023 -198.121 251.466 -92.865 263.326 3.05176e-05C272.479 71.668 281.124 139.362 307.245 159.276C313.824 164.292 321.138 166.145 329.598 164.944C339.902 163.48 346.426 164.905 349.544 169.296C357.019 179.821 343.703 205.607 326.843 238.254C300.654 288.967 268.061 352.082 295.475 391.834C306.432 407.722 326.614 418.686 355.461 424.422C387.999 430.894 432.709 430.961 488.354 424.624C535.156 419.298 574.085 420.31 604.054 427.64C631.094 434.252 651.633 446.204 665.101 463.161C707.411 516.435 674.713 608.352 650.839 675.467C637.423 713.181 626.827 742.969 635.873 750.314C641.632 754.986 655.642 750.41 678.702 736.312L679.093 736.953C661.61 747.639 649.467 752.852 641.845 752.852Z" fill="white"/>
<path d="M651.003 760.699C648.256 760.699 646.074 760.034 644.417 758.716C634.684 750.972 644.272 722.242 657.543 682.479C680.034 615.088 710.837 522.794 667.654 468.653C654.043 451.588 633.592 439.368 606.872 432.334C577.182 424.518 538.801 422.843 492.799 427.36C437.77 432.762 393.427 431.907 360.997 424.811C332.113 418.491 311.738 407.001 300.438 390.657C272.102 349.674 303.443 286.224 328.627 235.24C344.026 204.063 357.326 177.138 349.942 166.776C346.942 162.565 340.689 161.127 330.827 162.379C310.383 164.97 295.567 149.801 284.202 114.626C274.1 83.3541 267.907 39.9661 261.352 -5.97095C247.851 -100.574 232.548 -207.801 177.506 -236.899C154.173 -249.234 125.937 -246.934 91.183 -229.87L90.853 -230.543C125.838 -247.721 154.297 -250.016 177.857 -237.562C233.237 -208.286 248.568 -100.858 262.095 -6.07693C268.646 39.8271 274.834 83.185 284.917 114.394C296.15 149.164 310.707 164.174 330.733 161.634C340.893 160.344 347.378 161.884 350.553 166.34C358.197 177.067 345.445 202.885 329.3 235.571C304.204 286.378 272.971 349.61 301.056 390.229C312.244 406.412 332.466 417.799 361.158 424.077C393.51 431.155 437.775 432.007 492.726 426.613C538.815 422.087 577.285 423.768 607.064 431.607C633.944 438.683 654.527 450.99 668.241 468.185C711.678 522.643 680.801 615.162 658.255 682.715C645.576 720.704 635.563 750.71 644.885 758.129C650.743 762.79 664.508 758.386 686.962 744.661L687.353 745.302C670.425 755.649 658.572 760.699 651.003 760.699Z" fill="white"/>
<path d="M660.227 768.779C657.441 768.779 655.214 768.107 653.504 766.774C643.49 758.966 652.521 730.015 665.019 689.946C686.187 622.079 715.179 529.131 670.839 473.761C641.632 437.287 583.194 422.375 497.162 429.448C442.802 433.914 398.886 432.272 366.632 424.567C337.898 417.702 317.481 405.786 305.949 389.149C276.931 347.284 306.914 283.689 331.007 232.589C345.733 201.357 358.45 174.384 350.888 163.807C347.826 159.525 341.61 157.971 331.881 159.056C330.609 159.198 329.355 159.269 328.124 159.269C309.792 159.27 295.962 143.485 284.822 110.028C274.251 78.282 267.34 34.37 260.024 -12.119C244.824 -108.702 227.595 -218.171 171.416 -247.491C148.328 -259.542 120.83 -257.484 87.35 -241.201L87.022 -241.876C120.73 -258.27 148.449 -260.324 171.763 -248.157C228.278 -218.662 245.537 -108.994 260.765 -12.237C268.077 34.221 274.983 78.103 285.534 109.79C297.292 145.102 311.994 160.514 331.799 158.309C341.822 157.189 348.265 158.846 351.499 163.369C359.317 174.304 347.124 200.165 331.686 232.907C307.676 283.832 277.794 347.209 306.566 388.719C317.989 405.2 338.257 417.015 366.807 423.835C398.984 431.522 442.824 433.155 497.1 428.697C542.497 424.969 580.516 427.309 610.108 435.656C636.835 443.194 657.465 455.856 671.425 473.29C716.013 528.971 686.953 622.139 665.735 690.167C653.794 728.451 644.362 758.691 653.965 766.18C659.923 770.826 673.442 766.589 695.295 753.231L695.686 753.872C679.303 763.889 667.737 768.779 660.227 768.779Z" fill="white"/>
<path d="M669.518 777.102C666.697 777.102 664.426 776.423 662.664 775.078C652.363 767.21 660.835 738.019 672.56 697.618C692.407 629.237 719.587 535.586 674.065 478.948C644.343 441.969 586.288 426.052 501.52 431.629C447.814 435.165 404.308 432.74 372.218 424.425C343.624 417.015 323.159 404.671 311.392 387.735C281.674 344.963 310.31 281.195 333.319 229.955C347.375 198.653 359.515 171.619 351.772 160.822C348.649 156.469 342.465 154.799 332.87 155.718C331.805 155.82 330.749 155.872 329.711 155.872C311.265 155.874 297.11 139.715 285.354 105.399C274.31 73.163 266.677 28.71 258.596 -18.353C241.663 -116.973 222.471 -228.751 165.174 -258.289C142.353 -270.054 115.588 -268.227 83.35 -252.702L83.025 -253.378C115.039 -268.795 142.793 -270.67 165.518 -258.956C223.147 -229.247 242.373 -117.272 259.336 -18.48C267.411 28.552 275.039 72.976 286.064 105.155C298.351 141.02 313.205 156.846 332.799 154.971C342.688 154.023 349.091 155.794 352.382 160.384C360.377 171.532 348.739 197.449 334.004 230.261C311.072 281.328 282.533 344.883 312.008 387.306C323.67 404.09 343.991 416.334 372.407 423.698C404.421 431.994 447.842 434.412 501.472 430.881C546.183 427.938 583.769 430.935 613.184 439.787C639.764 447.786 660.444 460.804 674.651 478.478C720.418 535.419 693.174 629.288 673.282 697.827C662.078 736.433 653.227 766.926 663.12 774.482C669.174 779.106 682.448 775.035 703.708 762.038L704.099 762.679C688.246 772.368 676.966 777.102 669.518 777.102Z" fill="white"/>
<path d="M678.883 785.669C676.03 785.669 673.719 784.986 671.905 783.629C661.312 775.703 669.225 746.255 680.178 705.498C698.702 636.567 724.072 542.163 677.342 484.22C647.11 446.734 589.422 429.805 505.883 433.911C452.807 436.514 409.701 433.313 377.761 424.386C349.297 416.43 328.777 403.654 316.771 386.414C286.337 342.711 313.633 278.739 335.566 227.338C349.509 194.66 360.522 168.849 352.594 157.827C349.409 153.399 343.257 151.612 333.788 152.371C332.923 152.44 332.064 152.475 331.216 152.475C312.667 152.477 298.184 135.934 285.797 100.737C274.275 67.999 265.918 22.987 257.069 -24.667C238.368 -125.387 217.172 -239.545 158.776 -269.299C136.244 -280.781 110.208 -279.172 79.176 -264.383L78.854 -265.06C109.674 -279.75 136.679 -281.4 159.116 -269.968C217.841 -240.047 239.073 -125.695 257.806 -24.805C266.649 22.82 275.001 67.804 286.503 100.487C299.324 136.923 314.336 153.181 333.727 151.623C343.485 150.844 349.851 152.731 353.201 157.389C361.376 168.754 350.29 194.737 336.254 227.632C314.394 278.864 287.189 342.624 317.385 385.986C329.288 403.079 349.669 415.756 377.961 423.664C409.822 432.57 452.848 435.768 505.844 433.162C549.89 431.001 587.054 434.645 616.299 443.999C642.738 452.457 663.472 465.831 677.923 483.75C724.893 541.99 699.466 636.607 680.9 705.694C670.432 744.643 662.165 775.408 672.351 783.029C678.493 787.622 691.527 783.714 712.2 771.076L712.591 771.717C697.264 781.087 686.264 785.669 678.883 785.669Z" fill="white"/>
<path d="M688.324 794.486C685.442 794.486 683.092 793.798 681.228 792.432C670.335 784.451 677.689 754.726 687.868 713.586C705.066 644.07 728.622 548.865 680.659 489.575C649.921 451.576 592.594 433.643 510.248 436.291C457.777 437.969 415.06 433.991 383.264 424.451C354.92 415.947 334.339 402.737 322.092 385.188C290.926 340.531 316.888 276.327 337.748 224.738C351.003 191.957 361.473 166.065 353.356 154.811C350.109 150.31 343.989 148.415 334.64 149.002C315.035 150.253 299.649 133.412 286.158 96.0351C274.155 62.7821 265.069 17.194 255.45 -31.071C234.945 -133.954 211.704 -250.565 152.232 -280.533C130.317 -291.576 104.279 -290.137 74.836 -276.257L74.517 -276.936C104.178 -290.918 130.439 -292.356 152.569 -281.203C212.368 -251.07 235.647 -134.269 256.185 -31.2179C265.799 17.0181 274.879 62.5791 286.863 95.7801C300.225 132.797 315.395 149.454 334.592 148.254C344.217 147.639 350.555 149.645 353.964 154.372C362.324 165.962 351.786 192.024 338.444 225.019C317.651 276.44 291.774 340.435 322.708 384.759C334.856 402.165 355.303 415.278 383.481 423.732C415.2 433.249 457.839 437.224 510.227 435.541C553.63 434.147 590.376 438.439 619.455 448.293C645.761 457.207 666.55 470.939 681.245 489.104C702.585 515.485 711.778 551.152 709.349 598.142C707.275 638.275 696.918 680.133 688.597 713.766C678.868 753.085 671.185 784.143 681.673 791.826C687.902 796.391 700.696 792.636 720.792 780.351L721.183 780.992C706.358 790.054 695.635 794.485 688.324 794.486Z" fill="white"/>
<path d="M697.846 803.553C694.939 803.553 692.551 802.862 690.638 801.49C679.44 793.455 686.233 763.435 695.634 721.886C711.505 651.749 733.24 555.694 684.023 495.017C652.781 456.5 595.793 437.578 514.62 438.772C462.729 439.535 420.39 434.775 388.723 424.621C360.489 415.568 339.84 401.92 327.348 384.057C295.432 338.416 320.067 273.951 339.862 222.151C352.433 189.255 362.362 163.272 354.052 151.783C350.743 147.209 344.651 145.196 335.423 145.624C316.043 146.529 300.466 129.268 286.43 91.302C273.941 57.52 264.122 11.338 253.728 -37.556C231.382 -142.663 206.056 -261.795 145.53 -291.978C123.941 -302.743 98.635 -301.511 70.316 -288.312L70 -288.992C98.536 -302.292 124.062 -303.522 145.865 -292.649C206.714 -262.304 232.081 -142.985 254.462 -37.712C264.851 11.154 274.664 57.311 287.134 91.042C301.041 128.656 316.372 145.757 335.388 144.876C344.887 144.435 351.192 146.549 354.66 151.344C363.208 163.162 353.214 189.312 340.563 222.419C320.832 274.053 296.275 338.313 327.963 383.628C340.359 401.354 360.879 414.906 388.953 423.908C420.542 434.038 462.833 438.789 514.61 438.023C557.395 437.388 593.727 442.323 622.647 452.673C648.824 462.043 669.671 476.131 684.608 494.545C706.501 521.535 716.406 557.766 714.891 605.307C713.598 645.909 704.044 688.128 696.368 722.053C687.382 761.768 680.283 793.137 691.078 800.881C697.387 805.407 709.944 801.808 729.47 789.87L729.861 790.511C715.53 799.267 705.081 803.553 697.846 803.553Z" fill="white"/>
<path d="M707.451 812.878C704.522 812.878 702.1 812.184 700.14 810.808C688.631 802.724 694.861 772.391 703.482 730.408C718.021 659.614 737.932 562.657 687.435 500.549C655.692 461.507 599.019 441.591 518.991 441.355C467.693 441.203 425.688 435.665 394.142 424.895C366.009 415.291 345.285 401.202 332.546 383.018C299.864 336.369 323.179 271.61 341.913 219.576C353.803 186.551 363.195 160.465 354.69 148.735C351.319 144.087 345.255 141.958 336.142 142.227C335.845 142.236 335.546 142.24 335.251 142.24C316.452 142.242 300.979 124.498 286.616 86.524C273.635 52.197 263.08 5.40105 251.905 -44.144C227.682 -151.538 200.228 -273.261 138.679 -303.654C117.433 -314.144 92.855 -313.106 65.627 -300.567L65.314 -301.249C92.757 -313.888 117.551 -314.923 139.012 -304.327C200.881 -273.775 228.378 -151.867 252.637 -44.309C263.806 5.20904 274.355 51.981 287.319 86.256C301.777 124.485 317.312 142.066 336.12 141.474C345.505 141.202 351.77 143.428 355.298 148.292C364.036 160.343 354.585 186.593 342.62 219.827C323.945 271.699 300.703 336.253 333.162 382.584C345.808 400.635 366.407 414.63 394.386 424.182C425.854 434.925 467.779 440.45 518.995 440.602C561.149 440.727 597.11 446.29 625.879 457.136C651.935 466.959 672.842 481.406 688.02 500.074C710.475 527.692 721.102 564.509 720.507 612.628C719.999 653.721 711.249 696.324 704.22 730.558C695.978 770.692 689.468 802.392 700.574 810.193C706.957 814.676 719.278 811.221 738.241 799.63L738.632 800.271C724.785 808.734 714.606 812.878 707.451 812.878Z" fill="white"/>
</g>
</svg>
